<svg width="54" height="60" viewBox="0 0 54 60" fill="none" xmlns="http://www.w3.org/2000/svg">
<path d="M0.0711091 0.0105726C0.0711091 0.243169 0.0605276 0.401758 0.0711091 0.560346C0.473206 4.95854 0.875303 9.35673 1.26682 13.7655C1.81706 20.0033 2.35671 26.2411 2.90695 32.4684C3.53126 39.4674 4.16615 46.4559 4.76929 53.4549C4.81162 53.9624 4.99151 54.1844 5.46767 54.3113C12.2398 56.1721 18.9908 58.0434 25.763 59.8936C26.218 60.0205 26.7682 60.0416 27.2232 59.9148C34.0166 58.054 40.7993 56.1615 47.5926 54.2902C48.1111 54.1421 48.291 53.9095 48.3333 53.3809C48.545 50.7378 48.7989 48.0841 49.0317 45.4409C49.4232 41.0639 49.8042 36.6868 50.1957 32.3098C50.6507 27.1715 51.1163 22.0438 51.5713 16.9055C51.9099 13.0783 52.2696 9.26157 52.6082 5.4343C52.767 3.63696 52.9045 1.83963 53.0527 0H0.0711091V0.0105726ZM42.8309 15.2774C42.4818 19.1469 42.1326 23.0271 41.7834 26.8966C41.3813 31.3477 40.9792 35.7987 40.5771 40.2392C40.4607 41.5185 40.2914 42.7978 40.2596 44.0876C40.2385 44.7748 39.9422 44.9546 39.3708 45.1132C35.2863 46.2127 31.2125 47.344 27.1386 48.4647C26.9587 48.5175 26.7894 48.581 26.6095 48.6338C26.546 48.6021 26.4825 48.581 26.4085 48.5492C22.0489 47.3651 17.6893 46.1704 13.3297 44.9651C13.1498 44.9123 12.917 44.6268 12.8959 44.4259C12.589 41.1273 12.3139 37.8287 12.0176 34.4666H18.6734C18.7898 35.7882 18.9168 37.1309 19.0226 38.4842C19.1178 39.7317 19.1072 39.7317 20.2818 40.0489C22.3875 40.6092 24.5038 41.159 26.6095 41.7088L26.5883 41.6559C28.8951 41.0427 31.2019 40.4401 33.5086 39.7846C33.7203 39.7212 33.9636 39.3828 33.9954 39.1502C34.133 38.1353 34.207 37.1097 34.2917 36.0948C34.4292 34.456 34.5668 32.8173 34.7149 31.1045H26.5883L26.6095 31.0622C26.5566 31.0622 26.4931 31.0622 26.4402 31.0622H11.7108C11.5097 28.8737 11.3192 26.7063 11.1182 24.4755H26.4508C26.5037 24.4755 26.5672 24.4755 26.6201 24.4755L26.5989 24.4332H35.3075C35.5085 22.1601 35.7096 19.9399 35.9106 17.6773H26.5883L26.6095 17.635C26.5566 17.635 26.4931 17.635 26.4402 17.635C21.2235 17.6456 16.0068 17.6456 10.7902 17.6562C10.7161 17.6562 10.642 17.6245 10.5045 17.5822C10.314 15.4254 10.113 13.2686 9.92248 11.0483H26.4402C26.4931 11.0483 26.5566 11.0483 26.6095 11.0483L26.5883 11.006H43.1801C43.0637 12.4862 42.9473 13.8818 42.8309 15.2774Z" fill="black"/>
</svg>
