<svg width="61" height="60" viewBox="0 0 61 60" fill="none" xmlns="http://www.w3.org/2000/svg">
<path d="M59.7318 27.3573L33.5002 1.12561C31.9993 -0.375204 29.5197 -0.375204 28.0189 1.12561L22.6029 6.5416L29.5197 13.4584C31.1511 12.9364 32.9781 13.2626 34.2179 14.5677C35.523 15.8728 35.8493 17.6998 35.3272 19.3312L41.983 25.987C43.6144 25.4649 45.4414 25.7912 46.7465 27.0963C48.5736 28.8581 48.5736 31.7945 46.7465 33.6215C44.9194 35.4486 42.0483 35.4486 40.2212 33.6215C38.8509 32.2512 38.5246 30.2936 39.2424 28.5971L33.0434 22.398V38.7113C33.5002 38.907 33.8917 39.2333 34.2832 39.5595C36.1103 41.3214 36.1103 44.2578 34.2832 46.0848C32.4561 47.8467 29.585 47.8467 27.7579 46.0848C25.9308 44.2578 25.9308 41.3866 27.7579 39.5595C28.2147 39.1028 28.7367 38.7765 29.2587 38.5808V22.0718C28.7367 21.876 28.2147 21.4845 27.7579 21.093C26.3876 19.7227 26.0613 17.7651 26.7791 16.0685L19.9276 9.28222L1.98303 27.2268C0.482218 28.7276 0.482218 31.2072 1.98303 32.708L28.1494 58.8744C29.6502 60.3752 32.1299 60.3752 33.6307 58.8744L59.6666 32.8385C61.2326 31.2724 61.2326 28.8581 59.7318 27.3573Z" fill="black"/>
</svg>
