<svg width="61" height="60" viewBox="0 0 61 60" fill="none" xmlns="http://www.w3.org/2000/svg">
<path d="M0.266602 0C20.2801 0 40.2531 0 60.2666 0C60.2666 20.0135 60.2666 40.027 60.2666 60C40.2936 60 20.2801 60 0.266602 60C0.266602 39.946 0.266602 19.973 0.266602 0ZM53.9465 31.7623C52.7311 29.5746 51.0701 28.0756 48.6798 27.549C46.9783 27.1438 45.2767 27.1438 43.5752 27.5084C38.0654 28.6428 35.7156 35.287 39.2808 39.7029C40.5367 41.2424 42.1977 42.1742 43.9398 42.9845C45.4793 43.7137 47.0593 44.4024 48.5988 45.1722C49.6521 45.6988 50.0978 46.6712 49.9762 47.846C49.8547 49.0209 49.0444 49.6691 48.0316 50.0338C45.7629 50.844 43.1295 50.1148 41.59 48.2107C41.2659 47.8055 40.9418 47.3599 40.6177 46.9142C39.0782 47.8055 37.5792 48.6563 36.0802 49.5476C37.012 51.3707 38.3085 52.8292 40.091 53.8015C43.1295 55.4625 46.3301 55.7056 49.6116 54.8953C51.7588 54.3687 53.5819 53.2748 54.7163 51.2897C56.823 47.5219 55.6076 42.8224 51.8804 40.5132C50.2193 39.5003 48.3557 38.8116 46.6137 37.9203C45.7629 37.4747 44.8716 37.0695 44.1424 36.5024C42.8459 35.449 43.089 33.3423 44.5475 32.5321C45.9654 31.7218 47.9506 32.208 49.0444 33.6259C49.2875 33.9095 49.4496 34.2336 49.6927 34.5577C51.0701 33.6259 52.4881 32.6941 53.9465 31.7623ZM16.0667 50.1553C16.877 51.8974 18.0519 53.2748 19.7129 54.1661C21.8601 55.341 24.2099 55.5435 26.6002 55.1789C28.7474 54.8548 30.5299 53.8825 31.7048 51.9379C32.6771 50.3173 32.9607 48.5348 32.9607 46.6306C32.9607 40.4726 32.9607 34.3147 32.9607 28.1566C32.9607 27.9946 32.9607 27.792 32.9607 27.5895C31.0566 27.5895 29.2335 27.5895 27.3294 27.5895C27.3294 27.8325 27.3294 28.0351 27.3294 28.2782C27.3294 34.3552 27.3294 40.3916 27.3294 46.4686C27.3294 47.0358 27.2889 47.6435 27.2079 48.2107C27.0458 49.1425 26.5596 49.8312 25.6278 50.1148C23.8858 50.6415 22.4678 50.1148 21.455 48.6158C21.2119 48.2107 20.9688 47.8055 20.6852 47.4004C19.1052 48.3322 17.6062 49.2235 16.0667 50.1553Z" fill="black"/>
</svg>
