<svg width="61" height="61" viewBox="0 0 61 61" fill="none" xmlns="http://www.w3.org/2000/svg">
<g clip-path="url(#clip0_105207_2281)">
<path d="M50.6819 25.7145L31.4685 36.6587C31.1226 36.8621 30.6954 36.8621 30.3395 36.6587L11.126 25.7145C10.3734 25.2873 10.3734 24.199 11.126 23.7616L30.3395 12.8174C30.6853 12.6139 31.1125 12.6139 31.4685 12.8174L50.6819 23.7616C51.4346 24.1888 51.4346 25.2771 50.6819 25.7145Z" fill="black"/>
<path d="M47.356 29.3964V38.4183C47.356 38.8251 47.1424 39.1913 46.7864 39.3947L31.4686 48.1216C31.1228 48.3251 30.6956 48.3251 30.3396 48.1216L15.0217 39.3947C14.6657 39.1913 14.4521 38.8251 14.4521 38.4183V29.3964L22.9451 34.2278L30.3396 38.4488C30.6854 38.6522 31.1126 38.6522 31.4686 38.4488L38.8631 34.2278L47.356 29.3964Z" fill="black"/>
<path d="M56.3071 14.5058L56.836 14.1396C57.4768 13.6921 57.3954 12.7258 56.6936 12.3901L52.4827 10.3864C51.7708 10.0508 50.9672 10.6102 51.0283 11.3934L51.4351 16.0416C51.5063 16.8146 52.3912 17.2316 53.032 16.7841L53.7847 16.2654C60.4773 27.0469 58.677 41.4086 49.3195 50.1559C40.1145 58.7607 25.9257 59.8084 15.5816 52.6478C14.8899 52.1698 13.9338 52.3427 13.4558 53.0343C12.9777 53.726 13.1507 54.6821 13.8423 55.1601C18.9584 58.6997 24.9086 60.439 30.8486 60.439C38.2837 60.439 45.6985 57.7131 51.4046 52.3834C61.8504 42.6088 63.8643 26.5281 56.3071 14.5058Z" fill="black"/>
<path d="M47.9662 5.77884C36.4524 -2.19539 20.6565 -1.0257 10.4039 8.55558C-0.306391 18.5742 -2.22875 34.5837 5.75565 46.8095L5.01315 47.3181C4.37237 47.7656 4.45374 48.7319 5.15555 49.0675L9.36643 51.0713C10.0784 51.4069 10.8819 50.8475 10.8209 50.0643L10.4141 45.4161C10.3429 44.6431 9.45798 44.226 8.81719 44.6736L8.26794 45.0601C1.16843 34.0853 2.88737 19.7541 12.489 10.7831C21.6939 2.17823 35.8828 1.12043 46.2269 8.29113C46.9186 8.76918 47.8747 8.59627 48.3527 7.90463C48.8308 7.21299 48.6578 6.25689 47.9662 5.77884Z" fill="black"/>
</g>
<defs>
<clipPath id="clip0_105207_2281">
<rect width="60" height="59.939" fill="white" transform="translate(0.853516 0.5)"/>
</clipPath>
</defs>
</svg>
