<svg width="61" height="60" viewBox="0 0 61 60" fill="none" xmlns="http://www.w3.org/2000/svg">
<path d="M8.45957 9.79999V50.3C3.55957 44.9 0.55957 37.8 0.55957 30C0.55957 22.2 3.55957 15.1 8.45957 9.79999Z" fill="black"/>
<path d="M11.6592 14.2L28.9592 48.9H11.6592V14.2Z" fill="black"/>
<path d="M30.5596 45L13.5596 11.1H47.5596L30.5596 45Z" fill="black"/>
<path d="M30.5594 0C38.3594 0 45.4594 3 50.7594 7.9H10.3594C15.6594 3 22.7594 0 30.5594 0Z" fill="black"/>
<path d="M49.4592 48.9H32.1592L49.4592 14.2V48.9Z" fill="black"/>
<path d="M50.7594 52.1C45.4594 57 38.3594 60 30.5594 60C22.7594 60 15.6594 57 10.3594 52.1H50.7594Z" fill="black"/>
<path d="M52.6592 50.2V9.79999C57.5592 15.1 60.5592 22.2 60.5592 30C60.5592 37.8 57.5592 44.9 52.6592 50.2Z" fill="black"/>
<path d="M11.6592 14.2L28.9592 48.9H11.6592V14.2Z" fill="black"/>
<path d="M30.5596 45L13.5596 11.1H47.5596L30.5596 45Z" fill="black"/>
<path d="M32.1592 48.9L49.4592 14.2V48.9H32.1592Z" fill="black"/>
<path d="M13.5596 11.1H47.5596L30.5596 45L13.5596 11.1Z" fill="black"/>
</svg>
