<svg width="29" height="21" viewBox="0 0 29 21" fill="none" xmlns="http://www.w3.org/2000/svg">
<path d="M4.05574 20.2803L7.94491 13.5582C7.85213 13.5765 7.75019 13.5904 7.63908 13.5999C7.52796 13.609 7.42616 13.6136 7.33366 13.6136C5.50033 13.6136 3.93088 12.9608 2.62533 11.6553C1.31977 10.3497 0.666992 8.78027 0.666992 6.94694C0.666992 5.11361 1.31977 3.54416 2.62533 2.23861C3.93088 0.933051 5.50033 0.280273 7.33366 0.280273C9.16699 0.280273 10.7364 0.933051 12.042 2.23861C13.3475 3.54416 14.0003 5.11361 14.0003 6.94694C14.0003 7.54888 13.9239 8.12527 13.7712 8.67611C13.6184 9.22694 13.3892 9.76166 13.0837 10.2803L7.33366 20.2803H4.05574ZM19.0557 20.2803L22.9449 13.5582C22.8521 13.5765 22.7502 13.5904 22.6391 13.5999C22.528 13.609 22.4262 13.6136 22.3337 13.6136C20.5003 13.6136 18.9309 12.9608 17.6253 11.6553C16.3198 10.3497 15.667 8.78027 15.667 6.94694C15.667 5.11361 16.3198 3.54416 17.6253 2.23861C18.9309 0.933051 20.5003 0.280273 22.3337 0.280273C24.167 0.280273 25.7364 0.933051 27.042 2.23861C28.3475 3.54416 29.0003 5.11361 29.0003 6.94694C29.0003 7.54888 28.9239 8.12527 28.7712 8.67611C28.6184 9.22694 28.3892 9.76166 28.0837 10.2803L22.3337 20.2803H19.0557Z" fill="#1C1B1F"/>
</svg>
