<svg width="59" height="60" viewBox="0 0 59 60" fill="none" xmlns="http://www.w3.org/2000/svg">
<path d="M22.1153 54.8917C17.9776 53.7545 14.3385 51.6607 11.1613 48.7365C10.1638 49.0794 9.1478 49.4224 8.11335 49.7473C7.63307 49.8917 7.15279 49.8375 6.65404 49.657C5.76737 49.3321 5.23168 48.7004 4.84376 47.9242C4.30806 46.8953 3.62459 45.9567 3.08889 44.9278C2.60861 43.9711 1.90667 43.1408 1.50028 42.148C1.29708 41.6607 0.761385 41.3357 0.761385 40.722C0.281105 39.9639 0.742912 39.296 1.02 38.6282C1.09389 38.4477 1.18625 38.213 1.3525 38.1408C2.0175 37.852 2.35 37.2022 2.90417 36.8051C3.16278 36.6245 3.43987 36.426 3.73542 36.2094C3.31056 34.1336 2.94111 32.0578 2.94111 29.9278C2.94111 27.8159 3.32903 25.7762 3.73542 23.7545C3.015 23.1047 2.35 22.4729 1.64805 21.8773C0.927635 21.2635 0.502773 20.5054 0.595134 19.7112C0.650551 19.278 0.779857 18.8087 1.00152 18.4477C1.685 17.3827 2.31306 16.2635 2.97806 15.1805C3.51376 14.3141 3.97556 13.4116 4.56668 12.5632C4.8807 12.13 5.06543 11.6245 5.37946 11.1733C5.98904 10.3249 7.20821 9.90975 8.20572 10.1986C9.09238 10.4513 9.92364 10.8303 10.8288 10.9928C10.9211 11.0108 10.995 11.1372 11.0874 11.2274C14.2831 8.3213 17.9221 6.24549 22.0969 5.0361C22.2631 4.54874 22.3001 4.02527 22.5033 3.51986C22.651 3.14079 22.6141 2.67148 22.688 2.25632C22.8912 1.17329 23.5747 0.541516 24.5537 0.216606C24.9047 0.108303 25.2556 0 25.6805 0C28.2666 0.0361011 30.8527 0.0361011 33.4389 0C34.1777 0 34.8058 0.288809 35.3969 0.613718C35.9326 0.884477 36.2282 1.46209 36.3759 2.00361C36.6346 2.99639 36.7823 4.00722 36.9855 5.05415C41.1418 6.20939 44.7808 8.2852 47.9581 11.2094C48.9556 10.8664 49.9716 10.5235 51.006 10.1986C51.4863 10.0542 51.9666 10.1083 52.4653 10.2888C53.352 10.6137 53.8877 11.2455 54.2756 12.0217C54.8113 13.0505 55.4948 13.9892 56.0305 15.0181C56.5107 15.9747 57.2127 16.8051 57.6191 17.7978C57.8223 18.2852 58.358 18.6101 58.358 19.2238C58.8382 19.982 58.3764 20.6498 58.0994 21.3177C58.0255 21.4982 57.9331 21.7329 57.7669 21.8051C57.1018 22.0939 56.7693 22.7437 56.2152 23.1408C55.9566 23.3213 55.6795 23.5199 55.3839 23.7365C55.8088 25.8123 56.1782 27.8881 56.1782 30.018C56.1782 32.13 55.8457 34.1697 55.3839 36.1913C56.1043 36.8412 56.7694 37.4729 57.4713 38.0686C58.1917 38.6823 58.6166 39.4404 58.5242 40.2347C58.4688 40.6679 58.358 41.1372 58.1178 41.4982C57.4528 42.5451 56.8248 43.6282 56.1782 44.6931C55.3655 46.0108 54.7005 47.4368 53.7584 48.6823C53.5921 49.3682 52.9271 49.4224 52.4468 49.6751C51.9296 49.9458 51.4124 49.8736 50.8397 49.7112C49.99 49.4765 49.1772 49.0614 48.2906 48.9531C48.1982 48.935 48.1243 48.8087 48.032 48.7184C44.8363 51.6607 41.2157 53.7545 36.9855 54.9278C36.7823 55.9025 36.5976 56.9134 36.3759 57.9061C36.1543 58.8809 35.4893 59.4946 34.5472 59.7834C34.1962 59.8917 33.8268 60 33.4204 60C30.8343 59.9639 28.2481 59.9639 25.662 60C24.9231 60 24.2951 59.7112 23.704 59.3863C23.1683 59.1155 22.8542 58.5379 22.7434 57.9964C22.5402 56.9314 22.337 55.9386 22.1153 54.8917ZM23.316 38.9892C23.6855 38.7906 24.1104 38.6643 24.1288 38.231C24.1658 37.5812 24.2581 36.9134 24.1104 36.2996C23.8517 35.2527 23.3899 34.2419 23.1128 33.1949C22.9281 32.5271 22.5217 31.8953 22.5402 31.1733C21.9491 29.7473 21.5796 28.2491 21.0809 26.8051C20.6745 25.6137 20.379 24.3863 19.9356 23.213C19.6955 22.5632 19.6401 21.8412 19.1967 21.2635C19.1598 21.2094 19.1413 21.1733 19.1413 21.1733C18.6426 20.8484 18.1253 20.9567 17.682 20.9567C17.4234 21.1913 17.2017 21.3899 16.9985 21.5704C16.9801 22.148 16.5552 22.5993 16.6291 23.1588C15.9825 24.5668 15.7055 26.083 15.1698 27.5271C14.8927 28.2671 14.7264 29.0253 14.5048 29.7834C14.3016 30.5415 13.8582 31.2274 13.8582 32.0397C13.1563 33.574 12.8053 35.2166 12.2881 36.8231C12.1588 37.2202 12.0849 37.5993 12.3435 37.9783C12.4174 38.0866 12.3805 38.2491 12.3805 38.231C12.676 38.5379 12.8977 38.7545 13.0824 38.9711C13.4334 38.9711 13.8028 38.9711 14.1907 38.9711C14.4493 38.6462 14.708 38.3394 14.9481 38.0325C14.8927 37.0036 15.1144 36.3177 15.5946 35.2166C17.4049 35.2166 19.2152 35.2166 21.0255 35.2166C21.1733 35.7942 21.2471 36.3538 21.4503 36.8773C21.5427 37.0939 21.6351 37.3105 21.5981 37.5271C21.5427 38.1949 21.7644 38.7184 22.5402 38.9711C22.7249 38.9892 23.002 38.9892 23.316 38.9892ZM27.6386 38.9892C28.1373 38.9531 28.71 39.0975 29.1163 38.7004C29.2641 38.5199 29.3934 38.3394 29.5781 38.0866C29.5781 36.2816 29.5781 34.3863 29.5781 32.491C30.9266 32.491 32.2566 32.4368 33.5682 32.509C34.3625 32.5451 35.009 32.3105 35.6371 31.9314C35.9326 31.7509 36.1912 31.4801 36.4498 31.2274C37.1333 30.5776 37.4658 29.7834 37.4843 28.8448C37.4843 27.3646 37.4843 25.9025 37.4843 24.4224C37.4843 24.2058 37.4289 23.9711 37.3735 23.7545C37.1703 22.9783 36.7454 22.4007 36.1728 21.8953C35.5078 21.2996 34.7319 20.9386 33.8083 20.9386C31.7394 20.9386 29.689 20.9386 27.6016 20.9386C27.3984 21.1552 27.1952 21.3718 26.9551 21.5884C26.9551 27.148 26.9551 32.7437 26.9551 38.3574C27.1952 38.556 27.4169 38.7726 27.6386 38.9892ZM40.9386 38.9892C42.2132 38.9892 43.5063 38.9892 44.7808 38.9892C45.0025 38.7726 45.2242 38.556 45.4458 38.3574C45.4458 38.0144 45.4458 37.6895 45.4458 37.3466C45.4458 37.3105 45.4458 37.2924 45.4458 37.2744C45.1688 36.769 44.7439 36.4621 44.1897 36.4079C44.1897 32.0939 44.1897 27.7978 44.1897 23.5921C44.5961 23.3935 44.9471 23.213 45.3535 22.9964C45.4089 22.5271 45.4458 22.0397 45.4828 21.6968C45.1872 21.3718 44.984 21.1372 44.8178 20.9567C43.4878 20.9567 42.1947 20.9567 41.0494 20.9567C40.7354 21.2274 40.5137 21.426 40.2367 21.6787C40.2921 22.1119 40.366 22.5993 40.4214 23.0144C40.8647 23.231 41.2157 23.4116 41.5297 23.574C41.5297 27.87 41.5297 32.1661 41.5297 36.426C41.345 36.4621 41.1418 36.426 41.0679 36.5162C40.8093 36.769 40.366 36.8412 40.2736 37.2563C40.2736 37.6173 40.2736 37.9783 40.2736 38.3394C40.4953 38.556 40.7169 38.7726 40.9386 38.9892Z" fill="black"/>
<path d="M20.0457 32.4549C18.9561 32.491 17.8111 32.509 16.666 32.5451C16.6291 32.5451 16.5737 32.6173 16.4629 32.7076C16.4814 31.5885 17.1277 30.6859 17.2016 29.6571C17.7557 28.7545 17.8111 27.6895 18.1804 26.6787C18.2912 26.787 18.4574 26.8953 18.4574 26.9856C18.4759 27.7617 18.9376 28.4296 19.0853 29.1697C19.1962 29.6751 19.4916 30.1625 19.5655 30.6679C19.6394 31.3177 20.0826 31.8051 20.0457 32.4549Z" fill="black"/>
<path d="M34.9167 28.9544C34.7874 29.1529 34.6766 29.3515 34.5288 29.532C34.2702 29.8208 33.9377 29.9833 33.5128 29.9652C32.2197 29.9472 30.9267 29.9652 29.5967 29.9652C29.5967 27.8172 29.5967 25.6692 29.5967 23.467C30.9452 23.467 32.3306 23.449 33.6975 23.467C34.3441 23.4851 34.8982 24.1349 34.9167 24.8208C34.9167 25.958 34.9167 27.0952 34.9167 28.2323C34.9167 28.4851 34.9167 28.7197 34.9167 28.9544Z" fill="black"/>
</svg>
