<svg width="65" height="60" viewBox="0 0 65 60" fill="none" xmlns="http://www.w3.org/2000/svg">
<g clip-path="url(#clip0_136217_186)">
<path fill-rule="evenodd" clip-rule="evenodd" d="M62.9467 15.7639L57.2662 23.7083L51.5856 15.7639H54.6828C54.4467 9.86111 49.5717 5.13889 43.6134 5.13889C38.5856 5.13889 34.3217 8.51389 32.9745 13.1111C31.3356 12.5833 29.6412 12.25 27.9189 12.0972C28.1134 11.3611 28.3634 10.625 28.6689 9.91666C29.4884 7.98611 30.6551 6.25 32.1412 4.76389C33.6273 3.27778 35.3634 2.09722 37.2939 1.29167C39.2939 0.430555 41.4189 0 43.6134 0C45.8078 0 47.9328 0.430555 49.9328 1.27778C51.8634 2.09722 53.5995 3.26389 55.0856 4.75C56.5717 6.23611 57.7384 7.97222 58.5578 9.90277C59.3495 11.7639 59.78 13.7361 59.8217 15.7639H62.9467Z" fill="black"/>
<path fill-rule="evenodd" clip-rule="evenodd" d="M55.0023 60V56.5833H35.4189C35.5578 56.5139 35.6967 56.4584 35.8356 56.3889C37.9606 55.375 39.9189 54.0556 41.6689 52.4445C41.9051 52.2222 42.1273 52.0139 42.3356 51.8056C42.5717 51.5695 42.8217 51.3195 43.0578 51.0556C43.3356 50.75 43.6134 50.4306 43.8634 50.1111H55.0023V46.6945L64.3078 53.3472L55.0023 60Z" fill="black"/>
<path fill-rule="evenodd" clip-rule="evenodd" d="M47.7804 35.3194C47.7804 38.2778 47.1971 41.1528 46.0582 43.8611C45.0859 46.1667 43.7248 48.2778 42.0304 50.125C41.8082 50.3611 41.5859 50.5972 41.3637 50.8333C41.1554 51.0417 40.9471 51.2361 40.7387 51.4444C39.0998 52.9583 37.2665 54.1944 35.2665 55.1528C34.9887 55.2917 34.6971 55.4167 34.4054 55.5417C34.3915 55.5417 34.3915 55.5555 34.3776 55.5555C32.7109 56.2639 30.9193 56.6111 29.0998 56.6111H0.210938V50.1528H27.0304C35.1415 50.1528 41.7943 43.6667 41.9054 35.5555C41.9054 35.4861 41.9054 35.4167 41.9054 35.3472C41.9054 26.4861 34.7109 19.2917 25.8498 19.2917C16.9887 19.2639 9.79427 26.4444 9.79427 35.3194H13.5165L6.86372 44.625L0.210938 35.3194H3.93316C3.93316 32.3611 4.51649 29.4861 5.65538 26.7778C6.76649 24.1667 8.33594 21.8194 10.3498 19.8056C12.3637 17.7917 14.7109 16.2083 17.3221 15.1111C20.0304 13.9722 22.9054 13.3889 25.8637 13.3889C26.4609 13.3889 27.0443 13.4167 27.6276 13.4583C29.3498 13.5972 31.0304 13.9306 32.6693 14.4722C33.2526 14.6667 33.8221 14.875 34.3915 15.125C37.0026 16.2361 39.3498 17.8056 41.3637 19.8194C43.3776 21.8333 44.9609 24.1805 46.0582 26.7917C47.1971 29.4861 47.7804 32.3611 47.7804 35.3194Z" fill="black"/>
</g>
<defs>
<clipPath id="clip0_136217_186">
<rect width="64.1111" height="60" fill="white" transform="translate(0.210938)"/>
</clipPath>
</defs>
</svg>
