<?xml version="1.0" standalone="no"?>
<!DOCTYPE svg PUBLIC "-//W3C//DTD SVG 20010904//EN"
 "http://www.w3.org/TR/2001/REC-SVG-20010904/DTD/svg10.dtd">
<svg version="1.0" xmlns="http://www.w3.org/2000/svg"
 width="512.000000pt" height="512.000000pt" viewBox="0 0 512.000000 512.000000"
 preserveAspectRatio="xMidYMid meet">

<g transform="translate(0.000000,512.000000) scale(0.100000,-0.100000)"
fill="#000000" stroke="none">
<path d="M533 5105 c-81 -22 -132 -52 -193 -114 -65 -65 -104 -140 -120 -232
-8 -45 -10 -692 -8 -2239 l3 -2175 22 -58 c43 -115 139 -214 250 -258 l58 -24
1564 -3 c1712 -3 1628 -5 1730 55 70 41 135 112 172 189 l34 69 3 267 3 268
382 0 c344 0 385 2 417 18 19 9 40 28 47 42 20 39 19 1770 -1 1808 -26 51 -33
52 -451 55 l-390 2 -5 612 -5 613 -545 546 c-300 300 -557 552 -572 560 -40
21 -2316 20 -2395 -1z m3147 -1048 c0 -5 -120 -7 -267 -5 -264 3 -269 3 -313
28 -24 14 -58 45 -75 68 l-30 44 -3 281 -3 282 346 -345 c190 -190 345 -349
345 -353z m1020 -2242 l0 -745 -1815 0 -1815 0 0 745 0 745 1815 0 1815 0 0
-745z"/>
<path d="M1524 2336 c-93 -23 -175 -92 -216 -181 -35 -76 -33 -191 5 -267 49
-100 139 -162 255 -177 80 -10 106 -24 127 -67 19 -40 19 -48 -1 -89 -25 -53
-63 -65 -208 -65 -71 0 -136 -5 -150 -11 -60 -28 -71 -122 -20 -170 25 -23 30
-24 197 -24 167 0 173 1 223 27 76 40 107 70 145 140 31 58 34 70 34 148 0 78
-3 90 -34 148 -54 99 -137 156 -248 168 -77 9 -111 28 -129 71 -19 43 -5 93
33 123 23 18 41 20 155 20 89 0 139 4 163 14 35 15 65 59 65 96 0 37 -30 81
-65 96 -43 18 -258 18 -331 0z"/>
<path d="M2387 2340 c-104 -26 -179 -88 -224 -185 -28 -60 -28 -61 -31 -305
-5 -329 8 -389 105 -482 60 -59 124 -83 218 -83 67 0 89 4 137 28 101 49 167
145 176 254 6 74 -11 107 -65 129 -28 12 -42 13 -70 3 -38 -12 -73 -59 -73
-97 0 -39 -29 -83 -67 -98 -43 -19 -93 -5 -123 33 -19 24 -20 40 -20 280 l0
255 29 29 c21 21 39 29 65 29 70 0 107 -36 119 -114 12 -76 87 -117 152 -81
119 63 38 305 -128 380 -60 28 -145 38 -200 25z"/>
<path d="M3233 2335 c-147 -40 -238 -161 -237 -316 0 -127 82 -244 204 -290
27 -10 66 -19 85 -19 75 0 135 -49 135 -110 0 -37 -30 -81 -65 -96 -24 -10
-75 -14 -164 -14 -124 0 -131 -1 -159 -25 -38 -32 -48 -72 -28 -118 25 -61 55
-69 235 -65 147 3 159 5 213 31 108 53 178 166 178 287 0 159 -121 298 -275
316 -81 9 -90 12 -118 40 -39 39 -38 104 2 145 l29 29 132 0 c179 0 230 24
230 110 0 45 -23 78 -66 96 -45 19 -260 18 -331 -1z"/>
<path d="M4084 2336 c-93 -23 -175 -92 -216 -181 -35 -76 -33 -191 5 -267 49
-100 139 -162 255 -177 80 -10 106 -24 127 -67 19 -40 19 -48 -1 -89 -25 -53
-63 -65 -208 -65 -71 0 -136 -5 -150 -11 -60 -28 -71 -122 -20 -170 25 -23 30
-24 197 -24 167 0 173 1 223 27 76 40 107 70 145 140 31 58 34 70 34 148 0 78
-3 90 -34 148 -54 99 -137 156 -248 168 -77 9 -111 28 -129 71 -19 43 -5 93
33 123 23 18 41 20 155 20 89 0 139 4 163 14 35 15 65 59 65 96 0 37 -30 81
-65 96 -43 18 -258 18 -331 0z"/>
</g>
</svg>
