<svg width="61" height="60" viewBox="0 0 61 60" fill="none" xmlns="http://www.w3.org/2000/svg">
<path d="M60.4778 4.7749C60.0412 2.48295 58.2677 0.627558 56.003 0.136426C55.8939 0.109141 55.7847 0.109141 55.6483 0.0818554C55.621 0.0818554 55.5937 0.0272851 55.5664 0H5.52552C5.49824 0.0272851 5.47095 0.0818554 5.41638 0.0818554C3.15172 0.463847 1.24176 2.26467 0.72334 4.55662C0.696055 4.63847 0.641484 4.74761 0.586914 4.85675V55.0341C0.614199 55.0887 0.668769 55.116 0.668769 55.1705C1.21447 57.6808 2.74244 59.236 5.22538 59.8636C5.30724 59.8909 5.36181 59.9454 5.41638 60H55.6483C55.7029 59.9727 55.7301 59.9181 55.7847 59.8909C58.2677 59.3179 59.7956 57.8172 60.4232 55.3342C60.4505 55.2524 60.4232 55.1433 60.4505 55.0614C60.4505 55.0341 60.505 55.0068 60.5323 54.9795V4.93861C60.5323 4.88404 60.4778 4.85675 60.4778 4.7749ZM35.3754 33.2606H35.0753C32.8106 33.2606 30.5187 33.2606 28.254 33.2606C28.1449 33.2606 28.0357 33.2606 27.9266 33.2606C27.9266 33.2879 27.8993 33.2879 27.8993 33.3151C27.8993 33.4243 27.8993 33.5334 27.8993 33.6426V54.6794H21.9239V33.2879H14.4205V28.513H35.3482V33.2606H35.3754ZM55.5119 47.5307C55.4573 48.4584 55.3209 49.3588 54.9389 50.2319C54.8297 50.5048 54.7479 50.7503 54.6115 51.0232C54.1203 52.06 53.3018 52.7967 52.3468 53.397C51.2554 54.0791 50.0548 54.4611 48.7997 54.7067C47.4082 54.9795 46.0166 55.0614 44.5978 55.0068C43.9157 54.9795 43.2336 54.9795 42.5514 54.8977C40.9416 54.7067 39.3591 54.352 37.8857 53.6426C37.8038 53.6153 37.6947 53.4789 37.6947 53.397C37.6947 51.6235 37.6947 49.8499 37.6947 48.0764C37.6947 48.0491 37.6947 48.0218 37.6947 47.9673C38.1312 48.2674 38.5678 48.5675 39.0044 48.8131C40.0685 49.4407 41.2417 49.8772 42.4423 50.1501C43.4791 50.3956 44.516 50.4229 45.5528 50.3684C46.3441 50.3411 47.1353 50.1501 47.8447 49.7954C48.4723 49.4679 48.9907 49.0314 49.1271 48.2947C49.2636 47.6398 49.209 46.985 48.827 46.412C48.2813 45.5935 47.5173 45.075 46.6715 44.6385C45.7165 44.1746 44.7615 43.7654 43.7793 43.3288C42.3331 42.6739 40.9143 41.9645 39.7411 40.8731C38.7861 39.9727 38.0767 38.9086 37.7492 37.6262C37.5583 36.8622 37.5037 36.0982 37.531 35.3342C37.5583 33.4516 38.2404 31.8417 39.5774 30.5048C40.6688 29.4134 42.0057 28.7585 43.4791 28.3765C44.4887 28.131 45.4982 27.94 46.5351 27.9127C47.2718 27.9127 48.0084 27.8308 48.7179 27.8581C49.8366 27.8854 50.928 27.94 52.0194 28.2128C52.7288 28.4038 53.4655 28.5948 54.1749 28.7585C54.3113 28.7858 54.3659 28.8677 54.3659 29.0314C54.3659 30.7231 54.3659 32.442 54.3659 34.1337C54.3659 34.1883 54.3659 34.2428 54.3386 34.3247C54.1203 34.1883 53.9293 34.0791 53.7383 33.97C52.8652 33.4789 51.9375 33.1514 50.9825 32.9059C49.9184 32.6603 48.8543 32.4966 47.7629 32.5239C47.0262 32.5512 46.2622 32.6603 45.5801 32.9059C44.7342 33.206 44.0521 33.6971 43.752 34.5975C43.5064 35.307 43.6974 35.9072 44.134 36.4802C44.6797 37.1896 45.4164 37.6808 46.2076 38.0628C47.2718 38.5812 48.3632 39.0177 49.4 39.5089C50.6005 40.0819 51.8011 40.6548 52.8106 41.5007C53.6838 42.2374 54.475 43.0559 54.9116 44.1473C55.1572 44.8022 55.3754 45.4843 55.3754 46.221C55.4846 46.6576 55.5391 47.0941 55.5119 47.5307Z" fill="black"/>
</svg>
